# xmcd
#
# Track frame offsets:
#	172
#	16095
#	30787
#	42707
#	58527
#	69327
#	86610
#	101875
#	114620
#	125105
#
# Disc length: 1813
#
# Revision: 1
# Processed by: cddbd v1.5.1PL0 Copyright (c) Steve Scherf et al.
# Submitted via: dBpowerAMP V4.0
# Normalized: r0:TDELIM( - )
#
DISCID=8107130a
DTITLE=Various Artist - Country Music Wonderland
DYEAR=1997
DGENRE=Country
TTITLE0=Billy Dean - I Still Believe In Christmas
TTITLE1=Tanya Tucker - Christmas To Christmas
TTITLE2=Larry Gatlin And The Gatlin Bros - Winter Wonderland
TTITLE3=Suzy Bogguss - The First Noel
TTITLE4=Chris LeDoux - Santa Claus Is Coming To Town
TTITLE5=Ronnie Milsap - Till The Season Comes 'Round Again
TTITLE6=John Berry - O Come, O Come Emmanuel
TTITLE7=Oak Ridge Boys - O Little Town Of Bethlehem
TTITLE8=Ricky Lynn Gregg - What Child Is This
TTITLE9=Pirates Of The Mississippi - Jingle Bells
EXTD=EMI-Capitol Music Special Markets
EXTT0=
EXTT1=
EXTT2=
EXTT3=
EXTT4=
EXTT5=
EXTT6=
EXTT7=
EXTT8=
EXTT9=
PLAYORDER=
